<svg xmlns="http://www.w3.org/2000/svg" viewBox="0 0 640 480"><path d="M0,0H640V480H0Z" fill="#006"/><path d="M0,0V28L307,250h38.7V222L38.7,0ZM345.7,0V28L38.7,250H0V222L307,0Z" fill="#fff"/><path d="M144,0V250h57.6V0ZM0,83.3v83.4H345.7V83.3Z" fill="#fff"/><path d="M0,100v50H345.7V100ZM155.6,0V250H190V0H155.6ZM0,250l115.2-83.3H141L25.8,250ZM0,0,115.2,83.3H89.5L0,18.6ZM204.7,83.3,319.9,0h25.8L230.5,83.3ZM345.7,250,230.5,166.7h25.7l89.5,64.7Z" fill="#c00"/><path d="M299.8,392.5l-43.7,3.8,6,43.4L232,408l-30.2,31.7,6-43.4-43.6-3.8,37.7-22.3-24.3-36.5,41,15.5L232,307.5l13.5,41.7,41-15.5-24.3,36.5m224.4,62.3L476,416.7l17.8,6.7,5.8-18.1,5.8,18.1,17.9-6.7-10.6,15.8,16.4,9.7-19,1.7,2.6,18.8-13-13.7-13.2,13.7,2.6-18.8-19-1.7m16.4-291.8L476,134.6l17.8,6.7,5.8-18.1,5.8,18.1,17.9-6.7-10.6,15.8,16.4,9.7-19,1.7,2.6,18.8-13-13.7-13.2,13.8,2.6-18.9-19-1.6M380.8,265l-10.5-15.8,17.8,6.7,5.8-18.1,5.9,18.1,17.8-6.7L407,265l16.4,9.8-19,1.6,2.7,18.9-13.2-13.8-13,13.8,2.5-18.9-19-1.6m216.3-38L570,221l17.9,6.7,5.7-18.1,5.9,18.1,17.8-6.7-10.5,15.8,16.3,9.7-19,1.7,2.7,18.8-13.2-13.8-13,13.8,2.5-18.8-19-1.7M542,320l-10.3,6.5,2.9-11.9-9.3-7.8,12.1-1,4.6-11.2,4.6,11.3,12.2.9-9.3,7.8,2.9,11.9" fill="#fff" fill-rule="evenodd"/></svg>
