<svg xmlns="http://www.w3.org/2000/svg" xmlns:xlink="http://www.w3.org/1999/xlink" viewBox="0 0 641.644 481.28"><defs><clipPath id="a"><path d="M-80.182,0H561.462V481.28H-80.182Z" fill="rgba(0,0,0,0.7)"/></clipPath></defs><g transform="translate(80.182)" clip-path="url(#a)"><path d="M-240.64,0H721.92V481.28H-240.64Z" fill="#006"/><path d="M-240.64,0V53.768L614.29,481.28H721.92V427.512L-133.01,0ZM721.92,0V53.768L-133.01,481.28H-240.64V427.512L614.29,0Z" fill="#fff"/><path d="M160.458,0V481.28H320.822V0Zm-401.1,160.458V320.822H721.92V160.458Z" fill="#fff"/><path d="M-240.64,192.512v96.256H721.92V192.512ZM192.512,0V481.28h96.256V0ZM-240.64,481.28,80.182,320.822H152L-168.918,481.28Zm0-481.28L80.182,160.458H8.46l-249.1-124.55ZM329.376,160.458,650.2,0h71.72L401.1,160.458ZM721.92,481.28,401.1,320.822h71.72l249.1,124.55Z" fill="#c00"/></g></svg>
