<svg width="18" height="10" viewBox="0 0 17 9" xmlns="http://www.w3.org/2000/svg"><path d="M2.109 8.727H0V0h2.109v3.503h3.439V0h2.105v8.727H5.548V5.22H2.109v3.507zm10.091 0H8.974V0h3.222a5.732 5.732 0 0 1 1.097.1 4.198 4.198 0 0 1 1.202.422q.965.522 1.489 1.5a4.295 4.295 0 0 1 .431 1.258 5.946 5.946 0 0 1 .094 1.079 5.967 5.967 0 0 1-.1 1.12 4.305 4.305 0 0 1-.422 1.224q-.523.98-1.49 1.502a4.247 4.247 0 0 1-1.276.436 5.778 5.778 0 0 1-1.021.086zm-1.116-6.929v5.131h1.035a3.588 3.588 0 0 0 .559-.041q.304-.048.557-.152a2.058 2.058 0 0 0 .127-.056q.509-.25.771-.814.262-.565.262-1.507a5.48 5.48 0 0 0-.029-.577q-.058-.548-.235-.925a1.788 1.788 0 0 0-.336-.492 1.573 1.573 0 0 0-.442-.317 2.332 2.332 0 0 0-.553-.183q-.253-.052-.544-.063a4.279 4.279 0 0 0-.167-.004h-1.005z" vector-effect="non-scaling-stroke" stroke-linecap="round" fill-rule="evenodd" fill="#fff"/></svg>